<?xml version="1.0" standalone="no"?>
 <!DOCTYPE svg PUBLIC "-//W3C//DTD SVG 1.1//EN" 
 "http://www.w3.org/Graphics/SVG/1.1/DTD/svg11.dtd"> 
<svg
  xmlns:svg="http://www.w3.org/2000/svg"
  xmlns="http://www.w3.org/2000/svg"
  xmlns:xlink="http://www.w3.org/1999/xlink"
  version="1.1"
  width="297.0022mm" height="210.0072mm" viewBox="0.0000 0.0000 297.0022 210.0072">
<title>SVG Image created as dehumidifier-B_Cu.svg date 2025/08/07 08:15:27 </title>
  <desc>Image generated by PCBNEW </desc>
<g style="fill:#000000; fill-opacity:1.0000;stroke:#000000; stroke-opacity:1.0000;
stroke-linecap:round; stroke-linejoin:round;"
 transform="translate(0 0) scale(1 1)">
</g>
<g style="fill:none; 
stroke:#000000; stroke-width:0.2794; stroke-opacity:1; 
stroke-linecap:round; stroke-linejoin:round;">
<text x="84.0400" y="81.1314"
transform="scale(-1 1) translate(-168.080000 0)"
textLength="12.3771" font-size="1.6933" lengthAdjust="spacingAndGlyphs"
text-anchor="start" opacity="0" stroke-opacity="0">dehumidifier</text>
<g class="stroked-text"><desc>dehumidifier</desc>
<path d="M83.0095 80.9614
L83.0095 79.6914
" />
<path d="M83.0095 80.9009
L83.1305 80.9614
" />
<path d="M83.1305 80.9614
L83.3724 80.9614
" />
<path d="M83.3724 80.9614
L83.4933 80.9009
" />
<path d="M83.4933 80.9009
L83.5538 80.8405
" />
<path d="M83.5538 80.8405
L83.6143 80.7195
" />
<path d="M83.6143 80.7195
L83.6143 80.3567
" />
<path d="M83.6143 80.3567
L83.5538 80.2357
" />
<path d="M83.5538 80.2357
L83.4933 80.1752
" />
<path d="M83.4933 80.1752
L83.3724 80.1148
" />
<path d="M83.3724 80.1148
L83.1305 80.1148
" />
<path d="M83.1305 80.1148
L83.0095 80.1752
" />
<path d="M81.9209 80.9009
L82.0419 80.9614
" />
<path d="M82.0419 80.9614
L82.2838 80.9614
" />
<path d="M82.2838 80.9614
L82.4048 80.9009
" />
<path d="M82.4048 80.9009
L82.4652 80.7800
" />
<path d="M82.4652 80.7800
L82.4652 80.2962
" />
<path d="M82.4652 80.2962
L82.4048 80.1752
" />
<path d="M82.4048 80.1752
L82.2838 80.1148
" />
<path d="M82.2838 80.1148
L82.0419 80.1148
" />
<path d="M82.0419 80.1148
L81.9209 80.1752
" />
<path d="M81.9209 80.1752
L81.8605 80.2962
" />
<path d="M81.8605 80.2962
L81.8605 80.4171
" />
<path d="M81.8605 80.4171
L82.4652 80.5381
" />
<path d="M81.3162 80.9614
L81.3162 79.6914
" />
<path d="M80.7719 80.9614
L80.7719 80.2962
" />
<path d="M80.7719 80.2962
L80.8324 80.1752
" />
<path d="M80.8324 80.1752
L80.9533 80.1148
" />
<path d="M80.9533 80.1148
L81.1348 80.1148
" />
<path d="M81.1348 80.1148
L81.2557 80.1752
" />
<path d="M81.2557 80.1752
L81.3162 80.2357
" />
<path d="M79.6229 80.1148
L79.6229 80.9614
" />
<path d="M80.1671 80.1148
L80.1671 80.7800
" />
<path d="M80.1671 80.7800
L80.1067 80.9009
" />
<path d="M80.1067 80.9009
L79.9857 80.9614
" />
<path d="M79.9857 80.9614
L79.8043 80.9614
" />
<path d="M79.8043 80.9614
L79.6833 80.9009
" />
<path d="M79.6833 80.9009
L79.6229 80.8405
" />
<path d="M79.0181 80.9614
L79.0181 80.1148
" />
<path d="M79.0181 80.2357
L78.9576 80.1752
" />
<path d="M78.9576 80.1752
L78.8367 80.1148
" />
<path d="M78.8367 80.1148
L78.6552 80.1148
" />
<path d="M78.6552 80.1148
L78.5343 80.1752
" />
<path d="M78.5343 80.1752
L78.4738 80.2962
" />
<path d="M78.4738 80.2962
L78.4738 80.9614
" />
<path d="M78.4738 80.2962
L78.4133 80.1752
" />
<path d="M78.4133 80.1752
L78.2924 80.1148
" />
<path d="M78.2924 80.1148
L78.1109 80.1148
" />
<path d="M78.1109 80.1148
L77.9900 80.1752
" />
<path d="M77.9900 80.1752
L77.9295 80.2962
" />
<path d="M77.9295 80.2962
L77.9295 80.9614
" />
<path d="M77.3248 80.9614
L77.3248 80.1148
" />
<path d="M77.3248 79.6914
L77.3852 79.7519
" />
<path d="M77.3852 79.7519
L77.3248 79.8124
" />
<path d="M77.3248 79.8124
L77.2643 79.7519
" />
<path d="M77.2643 79.7519
L77.3248 79.6914
" />
<path d="M77.3248 79.6914
L77.3248 79.8124
" />
<path d="M76.1757 80.9614
L76.1757 79.6914
" />
<path d="M76.1757 80.9009
L76.2967 80.9614
" />
<path d="M76.2967 80.9614
L76.5386 80.9614
" />
<path d="M76.5386 80.9614
L76.6595 80.9009
" />
<path d="M76.6595 80.9009
L76.7200 80.8405
" />
<path d="M76.7200 80.8405
L76.7805 80.7195
" />
<path d="M76.7805 80.7195
L76.7805 80.3567
" />
<path d="M76.7805 80.3567
L76.7200 80.2357
" />
<path d="M76.7200 80.2357
L76.6595 80.1752
" />
<path d="M76.6595 80.1752
L76.5386 80.1148
" />
<path d="M76.5386 80.1148
L76.2967 80.1148
" />
<path d="M76.2967 80.1148
L76.1757 80.1752
" />
<path d="M75.5709 80.9614
L75.5709 80.1148
" />
<path d="M75.5709 79.6914
L75.6314 79.7519
" />
<path d="M75.6314 79.7519
L75.5709 79.8124
" />
<path d="M75.5709 79.8124
L75.5105 79.7519
" />
<path d="M75.5105 79.7519
L75.5709 79.6914
" />
<path d="M75.5709 79.6914
L75.5709 79.8124
" />
<path d="M75.1476 80.1148
L74.6638 80.1148
" />
<path d="M74.9662 80.9614
L74.9662 79.8728
" />
<path d="M74.9662 79.8728
L74.9057 79.7519
" />
<path d="M74.9057 79.7519
L74.7848 79.6914
" />
<path d="M74.7848 79.6914
L74.6638 79.6914
" />
<path d="M74.2405 80.9614
L74.2405 80.1148
" />
<path d="M74.2405 79.6914
L74.3009 79.7519
" />
<path d="M74.3009 79.7519
L74.2405 79.8124
" />
<path d="M74.2405 79.8124
L74.1800 79.7519
" />
<path d="M74.1800 79.7519
L74.2405 79.6914
" />
<path d="M74.2405 79.6914
L74.2405 79.8124
" />
<path d="M73.1519 80.9009
L73.2728 80.9614
" />
<path d="M73.2728 80.9614
L73.5148 80.9614
" />
<path d="M73.5148 80.9614
L73.6357 80.9009
" />
<path d="M73.6357 80.9009
L73.6962 80.7800
" />
<path d="M73.6962 80.7800
L73.6962 80.2962
" />
<path d="M73.6962 80.2962
L73.6357 80.1752
" />
<path d="M73.6357 80.1752
L73.5148 80.1148
" />
<path d="M73.5148 80.1148
L73.2728 80.1148
" />
<path d="M73.2728 80.1148
L73.1519 80.1752
" />
<path d="M73.1519 80.1752
L73.0914 80.2962
" />
<path d="M73.0914 80.2962
L73.0914 80.4171
" />
<path d="M73.0914 80.4171
L73.6962 80.5381
" />
<path d="M72.5471 80.9614
L72.5471 80.1148
" />
<path d="M72.5471 80.3567
L72.4867 80.2357
" />
<path d="M72.4867 80.2357
L72.4262 80.1752
" />
<path d="M72.4262 80.1752
L72.3052 80.1148
" />
<path d="M72.3052 80.1148
L72.1843 80.1148
" />
</g><text x="84.0400" y="83.1760"
transform="scale(-1 1) translate(-168.080000 0)"
textLength="9.3532" font-size="1.6933" lengthAdjust="spacingAndGlyphs"
text-anchor="start" opacity="0" stroke-opacity="0">(C) 2025</text>
<g class="stroked-text"><desc>(C) 2025</desc>
<path d="M83.1909 83.4899
L83.2514 83.4294
" />
<path d="M83.2514 83.4294
L83.3724 83.2480
" />
<path d="M83.3724 83.2480
L83.4329 83.1270
" />
<path d="M83.4329 83.1270
L83.4933 82.9456
" />
<path d="M83.4933 82.9456
L83.5538 82.6432
" />
<path d="M83.5538 82.6432
L83.5538 82.4013
" />
<path d="M83.5538 82.4013
L83.4933 82.0989
" />
<path d="M83.4933 82.0989
L83.4329 81.9175
" />
<path d="M83.4329 81.9175
L83.3724 81.7965
" />
<path d="M83.3724 81.7965
L83.2514 81.6151
" />
<path d="M83.2514 81.6151
L83.1909 81.5546
" />
<path d="M81.9814 82.8851
L82.0419 82.9456
" />
<path d="M82.0419 82.9456
L82.2233 83.0060
" />
<path d="M82.2233 83.0060
L82.3443 83.0060
" />
<path d="M82.3443 83.0060
L82.5257 82.9456
" />
<path d="M82.5257 82.9456
L82.6467 82.8246
" />
<path d="M82.6467 82.8246
L82.7071 82.7037
" />
<path d="M82.7071 82.7037
L82.7676 82.4618
" />
<path d="M82.7676 82.4618
L82.7676 82.2803
" />
<path d="M82.7676 82.2803
L82.7071 82.0384
" />
<path d="M82.7071 82.0384
L82.6467 81.9175
" />
<path d="M82.6467 81.9175
L82.5257 81.7965
" />
<path d="M82.5257 81.7965
L82.3443 81.7360
" />
<path d="M82.3443 81.7360
L82.2233 81.7360
" />
<path d="M82.2233 81.7360
L82.0419 81.7965
" />
<path d="M82.0419 81.7965
L81.9814 81.8570
" />
<path d="M81.5581 83.4899
L81.4976 83.4294
" />
<path d="M81.4976 83.4294
L81.3767 83.2480
" />
<path d="M81.3767 83.2480
L81.3162 83.1270
" />
<path d="M81.3162 83.1270
L81.2557 82.9456
" />
<path d="M81.2557 82.9456
L81.1952 82.6432
" />
<path d="M81.1952 82.6432
L81.1952 82.4013
" />
<path d="M81.1952 82.4013
L81.2557 82.0989
" />
<path d="M81.2557 82.0989
L81.3162 81.9175
" />
<path d="M81.3162 81.9175
L81.3767 81.7965
" />
<path d="M81.3767 81.7965
L81.4976 81.6151
" />
<path d="M81.4976 81.6151
L81.5581 81.5546
" />
<path d="M79.6833 81.8570
L79.6229 81.7965
" />
<path d="M79.6229 81.7965
L79.5019 81.7360
" />
<path d="M79.5019 81.7360
L79.1995 81.7360
" />
<path d="M79.1995 81.7360
L79.0786 81.7965
" />
<path d="M79.0786 81.7965
L79.0181 81.8570
" />
<path d="M79.0181 81.8570
L78.9576 81.9780
" />
<path d="M78.9576 81.9780
L78.9576 82.0989
" />
<path d="M78.9576 82.0989
L79.0181 82.2803
" />
<path d="M79.0181 82.2803
L79.7438 83.0060
" />
<path d="M79.7438 83.0060
L78.9576 83.0060
" />
<path d="M78.1714 81.7360
L78.0505 81.7360
" />
<path d="M78.0505 81.7360
L77.9295 81.7965
" />
<path d="M77.9295 81.7965
L77.8690 81.8570
" />
<path d="M77.8690 81.8570
L77.8086 81.9780
" />
<path d="M77.8086 81.9780
L77.7481 82.2199
" />
<path d="M77.7481 82.2199
L77.7481 82.5222
" />
<path d="M77.7481 82.5222
L77.8086 82.7641
" />
<path d="M77.8086 82.7641
L77.8690 82.8851
" />
<path d="M77.8690 82.8851
L77.9295 82.9456
" />
<path d="M77.9295 82.9456
L78.0505 83.0060
" />
<path d="M78.0505 83.0060
L78.1714 83.0060
" />
<path d="M78.1714 83.0060
L78.2924 82.9456
" />
<path d="M78.2924 82.9456
L78.3528 82.8851
" />
<path d="M78.3528 82.8851
L78.4133 82.7641
" />
<path d="M78.4133 82.7641
L78.4738 82.5222
" />
<path d="M78.4738 82.5222
L78.4738 82.2199
" />
<path d="M78.4738 82.2199
L78.4133 81.9780
" />
<path d="M78.4133 81.9780
L78.3528 81.8570
" />
<path d="M78.3528 81.8570
L78.2924 81.7965
" />
<path d="M78.2924 81.7965
L78.1714 81.7360
" />
<path d="M77.2643 81.8570
L77.2038 81.7965
" />
<path d="M77.2038 81.7965
L77.0828 81.7360
" />
<path d="M77.0828 81.7360
L76.7805 81.7360
" />
<path d="M76.7805 81.7360
L76.6595 81.7965
" />
<path d="M76.6595 81.7965
L76.5990 81.8570
" />
<path d="M76.5990 81.8570
L76.5386 81.9780
" />
<path d="M76.5386 81.9780
L76.5386 82.0989
" />
<path d="M76.5386 82.0989
L76.5990 82.2803
" />
<path d="M76.5990 82.2803
L77.3248 83.0060
" />
<path d="M77.3248 83.0060
L76.5386 83.0060
" />
<path d="M75.3895 81.7360
L75.9943 81.7360
" />
<path d="M75.9943 81.7360
L76.0548 82.3408
" />
<path d="M76.0548 82.3408
L75.9943 82.2803
" />
<path d="M75.9943 82.2803
L75.8733 82.2199
" />
<path d="M75.8733 82.2199
L75.5709 82.2199
" />
<path d="M75.5709 82.2199
L75.4500 82.2803
" />
<path d="M75.4500 82.2803
L75.3895 82.3408
" />
<path d="M75.3895 82.3408
L75.3290 82.4618
" />
<path d="M75.3290 82.4618
L75.3290 82.7641
" />
<path d="M75.3290 82.7641
L75.3895 82.8851
" />
<path d="M75.3895 82.8851
L75.4500 82.9456
" />
<path d="M75.4500 82.9456
L75.5709 83.0060
" />
<path d="M75.5709 83.0060
L75.8733 83.0060
" />
<path d="M75.8733 83.0060
L75.9943 82.9456
" />
<path d="M75.9943 82.9456
L76.0548 82.8851
" />
</g><path style="fill:#000000; fill-opacity:1.0000; stroke:none;fill-rule:evenodd;"
d="M 80.6500,52.5300
80.6500,50.8300
82.3500,50.8300
82.3500,52.5300
Z" /> 
</g>
<g style="fill:#000000; fill-opacity:1.0000; stroke:none;">
<circle cx="81.5000" cy="54.2200" r="0.8500" /> 
</g>
<g style="fill:#000000; fill-opacity:1.0000; stroke:none;">
<circle cx="81.5000" cy="56.7600" r="0.8500" /> 
</g>
<g style="fill:#000000; fill-opacity:1.0000; stroke:none;">
<circle cx="81.5000" cy="59.3000" r="0.8500" /> 
</g>
<g style="fill:#000000; fill-opacity:1.0000; stroke:none;">
<circle cx="81.5000" cy="61.8400" r="0.8500" /> 
</g>
<g style="fill:#000000; fill-opacity:1.0000; stroke:none;">
<circle cx="81.5000" cy="64.3800" r="0.8500" /> 
</g>
<g style="fill:#000000; fill-opacity:1.0000; stroke:none;">
<circle cx="81.5000" cy="66.9200" r="0.8500" /> 
</g>
<g style="fill:#000000; fill-opacity:1.0000; stroke:none;">
<circle cx="81.5000" cy="69.4600" r="0.8500" /> 
<path style="fill:#000000; fill-opacity:1.0000; stroke:none;fill-rule:evenodd;"
d="M 118.7500,52.5300
118.7500,50.8300
120.4500,50.8300
120.4500,52.5300
Z" /> 
</g>
<g style="fill:#000000; fill-opacity:1.0000; stroke:none;">
<circle cx="119.6000" cy="54.2200" r="0.8500" /> 
</g>
<g style="fill:#000000; fill-opacity:1.0000; stroke:none;">
<circle cx="119.6000" cy="56.7600" r="0.8500" /> 
</g>
<g style="fill:#000000; fill-opacity:1.0000; stroke:none;">
<circle cx="119.6000" cy="59.3000" r="0.8500" /> 
</g>
<g style="fill:#000000; fill-opacity:1.0000; stroke:none;">
<circle cx="119.6000" cy="61.8400" r="0.8500" /> 
</g>
<g style="fill:#000000; fill-opacity:1.0000; stroke:none;">
<circle cx="119.6000" cy="64.3800" r="0.8500" /> 
</g>
<g style="fill:#000000; fill-opacity:1.0000; stroke:none;">
<circle cx="119.6000" cy="66.9200" r="0.8500" /> 
</g>
<g style="fill:#000000; fill-opacity:1.0000; stroke:none;">
<circle cx="119.6000" cy="69.4600" r="0.8500" /> 
</g>
<g style="fill:#000000; fill-opacity:1.0000; stroke:none;">
<circle cx="119.6000" cy="72.0000" r="0.8500" /> 
<path style="fill:#000000; fill-opacity:1.0000; stroke:none;fill-rule:evenodd;"
d="M 85.8300,53.7200
85.8490,53.6243
85.9032,53.5432
85.9843,53.4890
86.0800,53.4700
87.0800,53.4700
87.1757,53.4890
87.2568,53.5432
87.3110,53.6243
87.3300,53.7200
87.3300,54.7200
87.3110,54.8157
87.2568,54.8968
87.1757,54.9510
87.0800,54.9700
86.0800,54.9700
85.9843,54.9510
85.9032,54.8968
85.8490,54.8157
85.8300,54.7200
Z" /> 
</g>
<g style="fill:#000000; fill-opacity:1.0000; stroke:none;">
<circle cx="94.2000" cy="54.2200" r="0.7500" /> 
<path style="fill:#000000; fill-opacity:1.0000; stroke:none;fill-rule:evenodd;"
d="M 120.3500,83.9550
118.8500,83.9550
118.8500,82.9050
120.3500,82.9050
Z" /> 
</g>
<g style="fill:none; 
stroke:#000000; stroke-width:1.0500; stroke-opacity:1; 
stroke-linecap:round; stroke-linejoin:round;">
<path d="M119.3750 82.1600
L119.8250 82.1600
" />
<path d="M119.3750 80.8900
L119.8250 80.8900
" />
<path style="fill:#000000; fill-opacity:1.0000; stroke:none;fill-rule:evenodd;"
d="M 85.8300,76.5800
85.8490,76.4843
85.9032,76.4032
85.9843,76.3490
86.0800,76.3300
87.0800,76.3300
87.1757,76.3490
87.2568,76.4032
87.3110,76.4843
87.3300,76.5800
87.3300,77.5800
87.3110,77.6757
87.2568,77.7568
87.1757,77.8110
87.0800,77.8300
86.0800,77.8300
85.9843,77.8110
85.9032,77.7568
85.8490,77.6757
85.8300,77.5800
Z" /> 
</g>
<g style="fill:#000000; fill-opacity:1.0000; stroke:none;">
<circle cx="94.2000" cy="77.0800" r="0.7500" /> 
</g>
<g style="fill:#000000; fill-opacity:1.0000; stroke:none;">
<circle cx="114.5200" cy="74.5400" r="0.8000" /> 
</g>
<g style="fill:#000000; fill-opacity:1.0000; stroke:none;">
<circle cx="114.5200" cy="82.1600" r="0.8000" /> 
<path style="fill:#000000; fill-opacity:1.0000; stroke:none;fill-rule:evenodd;"
d="M 85.8300,61.3400
85.8490,61.2443
85.9032,61.1632
85.9843,61.1090
86.0800,61.0900
87.0800,61.0900
87.1757,61.1090
87.2568,61.1632
87.3110,61.2443
87.3300,61.3400
87.3300,62.3400
87.3110,62.4357
87.2568,62.5168
87.1757,62.5710
87.0800,62.5900
86.0800,62.5900
85.9843,62.5710
85.9032,62.5168
85.8490,62.4357
85.8300,62.3400
Z" /> 
</g>
<g style="fill:#000000; fill-opacity:1.0000; stroke:none;">
<circle cx="94.2000" cy="61.8400" r="0.7500" /> 
</g>
<g style="fill:#000000; fill-opacity:1.0000; stroke:none;">
<circle cx="123.4100" cy="74.5400" r="0.8000" /> 
</g>
<g style="fill:#000000; fill-opacity:1.0000; stroke:none;">
<circle cx="123.4100" cy="82.1600" r="0.8000" /> 
<path style="fill:#000000; fill-opacity:1.0000; stroke:none;fill-rule:evenodd;"
d="M 111.4600,83.9550
109.9600,83.9550
109.9600,82.9050
111.4600,82.9050
Z" /> 
</g>
<g style="fill:none; 
stroke:#000000; stroke-width:1.0500; stroke-opacity:1; 
stroke-linecap:round; stroke-linejoin:round;">
<path d="M110.4850 82.1600
L110.9350 82.1600
" />
<path d="M110.4850 80.8900
L110.9350 80.8900
" />
<path style="fill:#000000; fill-opacity:1.0000; stroke:none;fill-rule:evenodd;"
d="M 129.2400,83.9550
127.7400,83.9550
127.7400,82.9050
129.2400,82.9050
Z" /> 
</g>
<g style="fill:none; 
stroke:#000000; stroke-width:1.0500; stroke-opacity:1; 
stroke-linecap:round; stroke-linejoin:round;">
<path d="M128.2650 82.1600
L128.7150 82.1600
" />
<path d="M128.2650 80.8900
L128.7150 80.8900
" />
<path style="fill:#000000; fill-opacity:1.0000; stroke:none;fill-rule:evenodd;"
d="M 85.8300,66.4200
85.8490,66.3243
85.9032,66.2432
85.9843,66.1890
86.0800,66.1700
87.0800,66.1700
87.1757,66.1890
87.2568,66.2432
87.3110,66.3243
87.3300,66.4200
87.3300,67.4200
87.3110,67.5157
87.2568,67.5968
87.1757,67.6510
87.0800,67.6700
86.0800,67.6700
85.9843,67.6510
85.9032,67.5968
85.8490,67.5157
85.8300,67.4200
Z" /> 
</g>
<g style="fill:#000000; fill-opacity:1.0000; stroke:none;">
<circle cx="94.2000" cy="66.9200" r="0.7500" /> 
<path style="fill:#000000; fill-opacity:1.0000; stroke:none;fill-rule:evenodd;"
d="M 136.5300,67.7700
136.5300,66.0700
138.2300,66.0700
138.2300,67.7700
Z" /> 
</g>
<g style="fill:#000000; fill-opacity:1.0000; stroke:none;">
<circle cx="137.3800" cy="69.4600" r="0.8500" /> 
</g>
<g style="fill:#000000; fill-opacity:1.0000; stroke:none;">
<circle cx="137.3800" cy="72.0000" r="0.8500" /> 
<path style="fill:#000000; fill-opacity:1.0000; stroke:none;fill-rule:evenodd;"
d="M 85.8300,63.8800
85.8490,63.7843
85.9032,63.7032
85.9843,63.6490
86.0800,63.6300
87.0800,63.6300
87.1757,63.6490
87.2568,63.7032
87.3110,63.7843
87.3300,63.8800
87.3300,64.8800
87.3110,64.9757
87.2568,65.0568
87.1757,65.1110
87.0800,65.1300
86.0800,65.1300
85.9843,65.1110
85.9032,65.0568
85.8490,64.9757
85.8300,64.8800
Z" /> 
</g>
<g style="fill:#000000; fill-opacity:1.0000; stroke:none;">
<circle cx="94.2000" cy="64.3800" r="0.7500" /> 
<path style="fill:#000000; fill-opacity:1.0000; stroke:none;fill-rule:evenodd;"
d="M 85.8300,58.8000
85.8490,58.7043
85.9032,58.6232
85.9843,58.5690
86.0800,58.5500
87.0800,58.5500
87.1757,58.5690
87.2568,58.6232
87.3110,58.7043
87.3300,58.8000
87.3300,59.8000
87.3110,59.8957
87.2568,59.9768
87.1757,60.0310
87.0800,60.0500
86.0800,60.0500
85.9843,60.0310
85.9032,59.9768
85.8490,59.8957
85.8300,59.8000
Z" /> 
</g>
<g style="fill:#000000; fill-opacity:1.0000; stroke:none;">
<circle cx="94.2000" cy="59.3000" r="0.7500" /> 
<path style="fill:#000000; fill-opacity:1.0000; stroke:none;fill-rule:evenodd;"
d="M 73.0300,52.5300
73.0300,50.8300
74.7300,50.8300
74.7300,52.5300
Z" /> 
</g>
<g style="fill:#000000; fill-opacity:1.0000; stroke:none;">
<circle cx="73.8800" cy="54.2200" r="0.8500" /> 
</g>
<g style="fill:#000000; fill-opacity:1.0000; stroke:none;">
<circle cx="73.8800" cy="56.7600" r="0.8500" /> 
</g>
<g style="fill:#000000; fill-opacity:1.0000; stroke:none;">
<circle cx="73.8800" cy="59.3000" r="0.8500" /> 
</g>
<g style="fill:#000000; fill-opacity:1.0000; stroke:none;">
<circle cx="73.8800" cy="61.8400" r="0.8500" /> 
</g>
<g style="fill:#000000; fill-opacity:1.0000; stroke:none;">
<circle cx="73.8800" cy="64.3800" r="0.8500" /> 
</g>
<g style="fill:#000000; fill-opacity:1.0000; stroke:none;">
<circle cx="73.8800" cy="66.9200" r="0.8500" /> 
</g>
<g style="fill:#000000; fill-opacity:1.0000; stroke:none;">
<circle cx="73.8800" cy="69.4600" r="0.8500" /> 
<path style="fill:#000000; fill-opacity:1.0000; stroke:none;fill-rule:evenodd;"
d="M 85.8300,74.0400
85.8490,73.9443
85.9032,73.8632
85.9843,73.8090
86.0800,73.7900
87.0800,73.7900
87.1757,73.8090
87.2568,73.8632
87.3110,73.9443
87.3300,74.0400
87.3300,75.0400
87.3110,75.1357
87.2568,75.2168
87.1757,75.2710
87.0800,75.2900
86.0800,75.2900
85.9843,75.2710
85.9032,75.2168
85.8490,75.1357
85.8300,75.0400
Z" /> 
</g>
<g style="fill:#000000; fill-opacity:1.0000; stroke:none;">
<circle cx="94.2000" cy="74.5400" r="0.7500" /> 
<path style="fill:#000000; fill-opacity:1.0000; stroke:none;fill-rule:evenodd;"
d="M 103.5100,52.5300
103.5100,50.8300
105.2100,50.8300
105.2100,52.5300
Z" /> 
</g>
<g style="fill:#000000; fill-opacity:1.0000; stroke:none;">
<circle cx="104.3600" cy="54.2200" r="0.8500" /> 
</g>
<g style="fill:#000000; fill-opacity:1.0000; stroke:none;">
<circle cx="104.3600" cy="56.7600" r="0.8500" /> 
</g>
<g style="fill:#000000; fill-opacity:1.0000; stroke:none;">
<circle cx="104.3600" cy="59.3000" r="0.8500" /> 
</g>
<g style="fill:#000000; fill-opacity:1.0000; stroke:none;">
<circle cx="104.3600" cy="61.8400" r="0.8500" /> 
</g>
<g style="fill:#000000; fill-opacity:1.0000; stroke:none;">
<circle cx="104.3600" cy="64.3800" r="0.8500" /> 
</g>
<g style="fill:#000000; fill-opacity:1.0000; stroke:none;">
<circle cx="104.3600" cy="66.9200" r="0.8500" /> 
</g>
<g style="fill:#000000; fill-opacity:1.0000; stroke:none;">
<circle cx="104.3600" cy="69.4600" r="0.8500" /> 
</g>
<g style="fill:#000000; fill-opacity:1.0000; stroke:none;">
<circle cx="104.3600" cy="72.0000" r="0.8500" /> 
</g>
<g style="fill:#000000; fill-opacity:1.0000; stroke:none;">
<circle cx="132.3000" cy="74.5400" r="0.8000" /> 
</g>
<g style="fill:#000000; fill-opacity:1.0000; stroke:none;">
<circle cx="132.3000" cy="82.1600" r="0.8000" /> 
<path style="fill:#000000; fill-opacity:1.0000; stroke:none;fill-rule:evenodd;"
d="M 85.8300,71.5000
85.8490,71.4043
85.9032,71.3232
85.9843,71.2690
86.0800,71.2500
87.0800,71.2500
87.1757,71.2690
87.2568,71.3232
87.3110,71.4043
87.3300,71.5000
87.3300,72.5000
87.3110,72.5957
87.2568,72.6768
87.1757,72.7310
87.0800,72.7500
86.0800,72.7500
85.9843,72.7310
85.9032,72.6768
85.8490,72.5957
85.8300,72.5000
Z" /> 
</g>
<g style="fill:#000000; fill-opacity:1.0000; stroke:none;">
<circle cx="94.2000" cy="72.0000" r="0.7500" /> 
<path style="fill:#000000; fill-opacity:1.0000; stroke:none;fill-rule:evenodd;"
d="M 85.8300,51.1800
85.8490,51.0843
85.9032,51.0032
85.9843,50.9490
86.0800,50.9300
87.0800,50.9300
87.1757,50.9490
87.2568,51.0032
87.3110,51.0843
87.3300,51.1800
87.3300,52.1800
87.3110,52.2757
87.2568,52.3568
87.1757,52.4110
87.0800,52.4300
86.0800,52.4300
85.9843,52.4110
85.9032,52.3568
85.8490,52.2757
85.8300,52.1800
Z" /> 
</g>
<g style="fill:#000000; fill-opacity:1.0000; stroke:none;">
<circle cx="94.2000" cy="51.6800" r="0.7500" /> 
<path style="fill:#000000; fill-opacity:1.0000; stroke:none;fill-rule:evenodd;"
d="M 85.8300,56.2600
85.8490,56.1643
85.9032,56.0832
85.9843,56.0290
86.0800,56.0100
87.0800,56.0100
87.1757,56.0290
87.2568,56.0832
87.3110,56.1643
87.3300,56.2600
87.3300,57.2600
87.3110,57.3557
87.2568,57.4368
87.1757,57.4910
87.0800,57.5100
86.0800,57.5100
85.9843,57.4910
85.9032,57.4368
85.8490,57.3557
85.8300,57.2600
Z" /> 
</g>
<g style="fill:#000000; fill-opacity:1.0000; stroke:none;">
<circle cx="94.2000" cy="56.7600" r="0.7500" /> 
<path style="fill:#000000; fill-opacity:1.0000; stroke:none;fill-rule:evenodd;"
d="M 136.5300,52.5300
136.5300,50.8300
138.2300,50.8300
138.2300,52.5300
Z" /> 
</g>
<g style="fill:#000000; fill-opacity:1.0000; stroke:none;">
<circle cx="137.3800" cy="54.2200" r="0.8500" /> 
</g>
<g style="fill:#000000; fill-opacity:1.0000; stroke:none;">
<circle cx="137.3800" cy="56.7600" r="0.8500" /> 
</g>
<g style="fill:#000000; fill-opacity:1.0000; stroke:none;">
<circle cx="137.3800" cy="59.3000" r="0.8500" /> 
</g>
<g style="fill:none; 
stroke:#000000; stroke-width:0.8890; stroke-opacity:1; 
stroke-linecap:round; stroke-linejoin:round;">
<path d="M121.5000 63.7400
L119.6000 61.8400
" />
<path d="M121.5000 66.0000
L121.5000 63.7400
" />
<path d="M124.0450 68.5450
L121.5000 66.0000
" />
<path d="M125.9500 74.5400
L124.0450 72.6350
" />
<path d="M132.3000 74.5400
L125.9500 74.5400
" />
<path d="M124.0450 72.6350
L124.0450 68.5450
" />
</g>
<g style="fill:none; 
stroke:#000000; stroke-width:1.2700; stroke-opacity:1; 
stroke-linecap:round; stroke-linejoin:round;">
<path d="M101.8200 56.7600
L104.3600 56.7600
" />
<path d="M96.7400 51.6800
L101.8200 56.7600
" />
<path d="M94.2000 51.6800
L96.7400 51.6800
" />
<path d="M81.5000 51.6800
L86.5800 51.6800
" />
<path d="M73.8800 51.6800
L81.5000 51.6800
" />
<path d="M73.8800 54.2200
L81.5000 54.2200
" />
<path d="M81.5000 54.2200
L86.5800 54.2200
" />
<path d="M96.7400 54.2200
L101.8200 59.3000
" />
<path d="M101.8200 59.3000
L104.3600 59.3000
" />
<path d="M94.2000 54.2200
L96.7400 54.2200
" />
<path d="M94.2000 56.7600
L96.7400 56.7600
" />
<path d="M96.7400 56.7600
L104.3600 64.3800
" />
<path d="M81.5000 59.3000
L73.8800 59.3000
" />
<path d="M86.5800 59.3000
L81.5000 59.3000
" />
<path d="M94.2000 59.3000
L96.7400 59.3000
" />
<path d="M96.7400 59.3000
L104.3600 66.9200
" />
<path d="M94.2000 61.8400
L96.7400 61.8400
" />
<path d="M96.7400 61.8400
L104.3600 69.4600
" />
<path d="M94.2000 64.3800
L96.7400 64.3800
" />
<path d="M96.7400 64.3800
L104.3600 72.0000
" />
<path d="M86.5800 64.3800
L81.5000 64.3800
" />
<path d="M81.5000 64.3800
L73.8800 64.3800
" />
</g>
<g style="fill:none; 
stroke:#000000; stroke-width:0.8890; stroke-opacity:1; 
stroke-linecap:round; stroke-linejoin:round;">
<path d="M95.5970 66.9200
L94.2000 66.9200
" />
<path d="M118.2030 76.4450
L105.1220 76.4450
" />
<path d="M105.1220 76.4450
L95.5970 66.9200
" />
<path d="M119.6000 75.0480
L118.2030 76.4450
" />
<path d="M119.6000 72.0000
L119.6000 75.0480
" />
<path d="M123.4100 74.5400
L122.1400 73.2700
" />
<path d="M122.1400 69.4600
L119.6000 66.9200
" />
<path d="M122.1400 73.2700
L122.1400 69.4600
" />
</g>
<g style="fill:none; 
stroke:#000000; stroke-width:1.2700; stroke-opacity:1; 
stroke-linecap:round; stroke-linejoin:round;">
<path d="M119.6000 51.6800
L137.3800 51.6800
" />
</g>
<g style="fill:none; 
stroke:#000000; stroke-width:0.8890; stroke-opacity:1; 
stroke-linecap:round; stroke-linejoin:round;">
<path d="M119.6000 69.4600
L117.0600 72.0000
" />
<path d="M117.0600 74.5400
L114.5200 74.5400
" />
<path d="M117.0600 72.0000
L117.0600 74.5400
" />
<path d="M137.3800 72.0000
L139.2031 72.0000
" />
<path d="M139.3301 71.8730
L139.3301 66.9200
" />
</g>
<g style="fill:none; 
stroke:#000000; stroke-width:1.2700; stroke-opacity:1; 
stroke-linecap:round; stroke-linejoin:round;">
<path d="M137.3800 54.2200
L131.0300 54.2200
" />
<path d="M131.0300 54.2200
L119.6000 54.2200
" />
</g>
<g style="fill:none; 
stroke:#000000; stroke-width:0.8890; stroke-opacity:1; 
stroke-linecap:round; stroke-linejoin:round;">
<path d="M139.2031 72.0000
L139.3301 71.8730
" />
<path d="M137.3800 72.0000
L131.0300 72.0000
" />
<path d="M139.3301 66.9200
L137.3800 66.9200
" />
<path d="M131.0300 72.0000
L131.0300 54.2200
" />
</g>
<g style="fill:none; 
stroke:#000000; stroke-width:1.2700; stroke-opacity:1; 
stroke-linecap:round; stroke-linejoin:round;">
<path d="M134.8400 69.4600
L134.8400 56.7600
" />
<path d="M137.3800 69.4600
L134.8400 69.4600
" />
<path d="M134.8400 56.7600
L137.3800 56.7600
" />
</g>
<g style="fill:none; 
stroke:#000000; stroke-width:0.8890; stroke-opacity:1; 
stroke-linecap:round; stroke-linejoin:round;">
<path d="M132.3000 82.1600
L129.2355 82.1600
" />
<path d="M123.4100 82.1600
L119.6000 82.1600
" />
<path d="M114.5200 82.1600
L110.7100 82.1600
" />
<path d="M89.7550 77.0800
L91.7870 75.0480
" />
</g>
<g style="fill:none; 
stroke:#000000; stroke-width:1.2700; stroke-opacity:1; 
stroke-linecap:round; stroke-linejoin:round;">
<path d="M73.8800 56.7600
L81.5000 56.7600
" />
</g>
<g style="fill:none; 
stroke:#000000; stroke-width:0.8890; stroke-opacity:1; 
stroke-linecap:round; stroke-linejoin:round;">
<path d="M91.7870 58.9190
L89.6280 56.7600
" />
<path d="M91.7870 75.0480
L91.7870 58.9190
" />
<path d="M86.5800 77.0800
L89.7550 77.0800
" />
</g>
<g style="fill:none; 
stroke:#000000; stroke-width:1.2700; stroke-opacity:1; 
stroke-linecap:round; stroke-linejoin:round;">
<path d="M81.5000 56.7600
L86.5800 56.7600
" />
</g>
<g style="fill:none; 
stroke:#000000; stroke-width:0.8890; stroke-opacity:1; 
stroke-linecap:round; stroke-linejoin:round;">
<path d="M89.6280 56.7600
L86.5800 56.7600
" />
<path d="M88.2310 61.8400
L86.5800 61.8400
" />
<path d="M88.1040 74.5400
L89.5010 73.1430
" />
<path d="M89.5010 73.1430
L89.5010 63.1100
" />
</g>
<g style="fill:none; 
stroke:#000000; stroke-width:1.2700; stroke-opacity:1; 
stroke-linecap:round; stroke-linejoin:round;">
<path d="M81.5000 61.8400
L86.5800 61.8400
" />
</g>
<g style="fill:none; 
stroke:#000000; stroke-width:0.8890; stroke-opacity:1; 
stroke-linecap:round; stroke-linejoin:round;">
<path d="M89.5010 63.1100
L88.2310 61.8400
" />
</g>
<g style="fill:none; 
stroke:#000000; stroke-width:1.2700; stroke-opacity:1; 
stroke-linecap:round; stroke-linejoin:round;">
<path d="M73.8800 61.8400
L81.5000 61.8400
" />
</g>
<g style="fill:none; 
stroke:#000000; stroke-width:0.8890; stroke-opacity:1; 
stroke-linecap:round; stroke-linejoin:round;">
<path d="M86.5800 74.5400
L88.1040 74.5400
" />
<path d="M86.5800 72.0000
L86.5800 66.9200
" />
</g>
<g style="fill:none; 
stroke:#000000; stroke-width:1.2700; stroke-opacity:1; 
stroke-linecap:round; stroke-linejoin:round;">
<path d="M81.5000 66.9200
L73.8800 66.9200
" />
<path d="M81.5000 66.9200
L86.5800 66.9200
" />
</g>
<g style="fill:none; 
stroke:#000000; stroke-width:0.8890; stroke-opacity:1; 
stroke-linecap:round; stroke-linejoin:round;">
<path d="M125.4420 77.8420
L128.4900 80.8900
" />
<path d="M102.3280 77.8420
L125.4420 77.8420
" />
<path d="M96.4860 72.0000
L102.3280 77.8420
" />
<path d="M94.2000 72.0000
L96.4860 72.0000
" />
<path d="M101.4390 79.3660
L96.6130 74.5400
" />
<path d="M118.0760 79.3660
L101.4390 79.3660
" />
<path d="M96.6130 74.5400
L94.2000 74.5400
" />
<path d="M119.6000 80.8900
L118.0760 79.3660
" />
<path d="M100.0420 80.8900
L110.7100 80.8900
" />
<path d="M94.2000 77.0800
L96.2320 77.0800
" />
<path d="M96.2320 77.0800
L100.0420 80.8900
" />
<path d="M120.0318 83.8618
L128.0582 83.8618
" />
<path d="M119.0920 83.9380
L119.6000 83.4300
" />
<path d="M95.8510 79.2390
L85.4370 79.2390
" />
<path d="M110.7100 83.4300
L111.2180 83.9380
" />
<path d="M85.4370 79.2390
L84.6750 78.4770
" />
<path d="M84.6750 72.6350
L81.5000 69.4600
" />
<path d="M100.4738 83.8618
L95.8510 79.2390
" />
<path d="M110.7100 83.4300
L110.2782 83.8618
" />
<path d="M119.6000 83.4300
L120.0318 83.8618
" />
<path d="M81.5000 69.4600
L73.8800 69.4600
" />
<path d="M128.0582 83.8618
L128.4900 83.4300
" />
<path d="M110.2782 83.8618
L100.4738 83.8618
" />
<path d="M111.2180 83.9380
L119.0920 83.9380
" />
<path d="M84.6750 78.4770
L84.6750 72.6350
" />
<path style="fill:none; 
stroke:#000000; stroke-width:0.0500; stroke-opacity:1; 
stroke-linecap:round; stroke-linejoin:round;fill:none"
d="M 71.5000,49.0000
140.5000,49.0000
140.5000,85.0000
71.5000,85.0000
Z" /> 
</g>
<g style="fill:#FFFFFF; fill-opacity:1.0000; stroke:none;">
<circle cx="81.5000" cy="51.6800" r="0.5000" /> 
</g>
<g style="fill:#FFFFFF; fill-opacity:1.0000; stroke:none;">
<circle cx="81.5000" cy="54.2200" r="0.5000" /> 
</g>
<g style="fill:#FFFFFF; fill-opacity:1.0000; stroke:none;">
<circle cx="81.5000" cy="56.7600" r="0.5000" /> 
</g>
<g style="fill:#FFFFFF; fill-opacity:1.0000; stroke:none;">
<circle cx="81.5000" cy="59.3000" r="0.5000" /> 
</g>
<g style="fill:#FFFFFF; fill-opacity:1.0000; stroke:none;">
<circle cx="81.5000" cy="61.8400" r="0.5000" /> 
</g>
<g style="fill:#FFFFFF; fill-opacity:1.0000; stroke:none;">
<circle cx="81.5000" cy="64.3800" r="0.5000" /> 
</g>
<g style="fill:#FFFFFF; fill-opacity:1.0000; stroke:none;">
<circle cx="81.5000" cy="66.9200" r="0.5000" /> 
</g>
<g style="fill:#FFFFFF; fill-opacity:1.0000; stroke:none;">
<circle cx="81.5000" cy="69.4600" r="0.5000" /> 
</g>
<g style="fill:#FFFFFF; fill-opacity:1.0000; stroke:none;">
<circle cx="119.6000" cy="51.6800" r="0.5000" /> 
</g>
<g style="fill:#FFFFFF; fill-opacity:1.0000; stroke:none;">
<circle cx="119.6000" cy="54.2200" r="0.5000" /> 
</g>
<g style="fill:#FFFFFF; fill-opacity:1.0000; stroke:none;">
<circle cx="119.6000" cy="56.7600" r="0.5000" /> 
</g>
<g style="fill:#FFFFFF; fill-opacity:1.0000; stroke:none;">
<circle cx="119.6000" cy="59.3000" r="0.5000" /> 
</g>
<g style="fill:#FFFFFF; fill-opacity:1.0000; stroke:none;">
<circle cx="119.6000" cy="61.8400" r="0.5000" /> 
</g>
<g style="fill:#FFFFFF; fill-opacity:1.0000; stroke:none;">
<circle cx="119.6000" cy="64.3800" r="0.5000" /> 
</g>
<g style="fill:#FFFFFF; fill-opacity:1.0000; stroke:none;">
<circle cx="119.6000" cy="66.9200" r="0.5000" /> 
</g>
<g style="fill:#FFFFFF; fill-opacity:1.0000; stroke:none;">
<circle cx="119.6000" cy="69.4600" r="0.5000" /> 
</g>
<g style="fill:#FFFFFF; fill-opacity:1.0000; stroke:none;">
<circle cx="119.6000" cy="72.0000" r="0.5000" /> 
</g>
<g style="fill:#FFFFFF; fill-opacity:1.0000; stroke:none;">
<circle cx="86.5800" cy="54.2200" r="0.3750" /> 
</g>
<g style="fill:#FFFFFF; fill-opacity:1.0000; stroke:none;">
<circle cx="94.2000" cy="54.2200" r="0.3750" /> 
</g>
<g style="fill:#FFFFFF; fill-opacity:1.0000; stroke:none;">
<circle cx="119.6000" cy="83.4300" r="0.3750" /> 
</g>
<g style="fill:#FFFFFF; fill-opacity:1.0000; stroke:none;">
<circle cx="119.6000" cy="82.1600" r="0.3750" /> 
</g>
<g style="fill:#FFFFFF; fill-opacity:1.0000; stroke:none;">
<circle cx="119.6000" cy="80.8900" r="0.3750" /> 
</g>
<g style="fill:#FFFFFF; fill-opacity:1.0000; stroke:none;">
<circle cx="86.5800" cy="77.0800" r="0.3750" /> 
</g>
<g style="fill:#FFFFFF; fill-opacity:1.0000; stroke:none;">
<circle cx="94.2000" cy="77.0800" r="0.3750" /> 
</g>
<g style="fill:#FFFFFF; fill-opacity:1.0000; stroke:none;">
<circle cx="114.5200" cy="74.5400" r="0.4000" /> 
</g>
<g style="fill:#FFFFFF; fill-opacity:1.0000; stroke:none;">
<circle cx="114.5200" cy="82.1600" r="0.4000" /> 
</g>
<g style="fill:#FFFFFF; fill-opacity:1.0000; stroke:none;">
<circle cx="86.5800" cy="61.8400" r="0.3750" /> 
</g>
<g style="fill:#FFFFFF; fill-opacity:1.0000; stroke:none;">
<circle cx="94.2000" cy="61.8400" r="0.3750" /> 
</g>
<g style="fill:#FFFFFF; fill-opacity:1.0000; stroke:none;">
<circle cx="123.4100" cy="74.5400" r="0.4000" /> 
</g>
<g style="fill:#FFFFFF; fill-opacity:1.0000; stroke:none;">
<circle cx="123.4100" cy="82.1600" r="0.4000" /> 
</g>
<g style="fill:#FFFFFF; fill-opacity:1.0000; stroke:none;">
<circle cx="110.7100" cy="83.4300" r="0.3750" /> 
</g>
<g style="fill:#FFFFFF; fill-opacity:1.0000; stroke:none;">
<circle cx="110.7100" cy="82.1600" r="0.3750" /> 
</g>
<g style="fill:#FFFFFF; fill-opacity:1.0000; stroke:none;">
<circle cx="110.7100" cy="80.8900" r="0.3750" /> 
</g>
<g style="fill:#FFFFFF; fill-opacity:1.0000; stroke:none;">
<circle cx="128.4900" cy="83.4300" r="0.3750" /> 
</g>
<g style="fill:#FFFFFF; fill-opacity:1.0000; stroke:none;">
<circle cx="128.4900" cy="82.1600" r="0.3750" /> 
</g>
<g style="fill:#FFFFFF; fill-opacity:1.0000; stroke:none;">
<circle cx="128.4900" cy="80.8900" r="0.3750" /> 
</g>
<g style="fill:#FFFFFF; fill-opacity:1.0000; stroke:none;">
<circle cx="86.5800" cy="66.9200" r="0.3750" /> 
</g>
<g style="fill:#FFFFFF; fill-opacity:1.0000; stroke:none;">
<circle cx="94.2000" cy="66.9200" r="0.3750" /> 
</g>
<g style="fill:#FFFFFF; fill-opacity:1.0000; stroke:none;">
<circle cx="137.3800" cy="66.9200" r="0.5000" /> 
</g>
<g style="fill:#FFFFFF; fill-opacity:1.0000; stroke:none;">
<circle cx="137.3800" cy="69.4600" r="0.5000" /> 
</g>
<g style="fill:#FFFFFF; fill-opacity:1.0000; stroke:none;">
<circle cx="137.3800" cy="72.0000" r="0.5000" /> 
</g>
<g style="fill:#FFFFFF; fill-opacity:1.0000; stroke:none;">
<circle cx="86.5800" cy="64.3800" r="0.3750" /> 
</g>
<g style="fill:#FFFFFF; fill-opacity:1.0000; stroke:none;">
<circle cx="94.2000" cy="64.3800" r="0.3750" /> 
</g>
<g style="fill:#FFFFFF; fill-opacity:1.0000; stroke:none;">
<circle cx="86.5800" cy="59.3000" r="0.3750" /> 
</g>
<g style="fill:#FFFFFF; fill-opacity:1.0000; stroke:none;">
<circle cx="94.2000" cy="59.3000" r="0.3750" /> 
</g>
<g style="fill:#FFFFFF; fill-opacity:1.0000; stroke:none;">
<circle cx="73.8800" cy="51.6800" r="0.5000" /> 
</g>
<g style="fill:#FFFFFF; fill-opacity:1.0000; stroke:none;">
<circle cx="73.8800" cy="54.2200" r="0.5000" /> 
</g>
<g style="fill:#FFFFFF; fill-opacity:1.0000; stroke:none;">
<circle cx="73.8800" cy="56.7600" r="0.5000" /> 
</g>
<g style="fill:#FFFFFF; fill-opacity:1.0000; stroke:none;">
<circle cx="73.8800" cy="59.3000" r="0.5000" /> 
</g>
<g style="fill:#FFFFFF; fill-opacity:1.0000; stroke:none;">
<circle cx="73.8800" cy="61.8400" r="0.5000" /> 
</g>
<g style="fill:#FFFFFF; fill-opacity:1.0000; stroke:none;">
<circle cx="73.8800" cy="64.3800" r="0.5000" /> 
</g>
<g style="fill:#FFFFFF; fill-opacity:1.0000; stroke:none;">
<circle cx="73.8800" cy="66.9200" r="0.5000" /> 
</g>
<g style="fill:#FFFFFF; fill-opacity:1.0000; stroke:none;">
<circle cx="73.8800" cy="69.4600" r="0.5000" /> 
</g>
<g style="fill:#FFFFFF; fill-opacity:1.0000; stroke:none;">
<circle cx="86.5800" cy="74.5400" r="0.3750" /> 
</g>
<g style="fill:#FFFFFF; fill-opacity:1.0000; stroke:none;">
<circle cx="94.2000" cy="74.5400" r="0.3750" /> 
</g>
<g style="fill:#FFFFFF; fill-opacity:1.0000; stroke:none;">
<circle cx="104.3600" cy="51.6800" r="0.5000" /> 
</g>
<g style="fill:#FFFFFF; fill-opacity:1.0000; stroke:none;">
<circle cx="104.3600" cy="54.2200" r="0.5000" /> 
</g>
<g style="fill:#FFFFFF; fill-opacity:1.0000; stroke:none;">
<circle cx="104.3600" cy="56.7600" r="0.5000" /> 
</g>
<g style="fill:#FFFFFF; fill-opacity:1.0000; stroke:none;">
<circle cx="104.3600" cy="59.3000" r="0.5000" /> 
</g>
<g style="fill:#FFFFFF; fill-opacity:1.0000; stroke:none;">
<circle cx="104.3600" cy="61.8400" r="0.5000" /> 
</g>
<g style="fill:#FFFFFF; fill-opacity:1.0000; stroke:none;">
<circle cx="104.3600" cy="64.3800" r="0.5000" /> 
</g>
<g style="fill:#FFFFFF; fill-opacity:1.0000; stroke:none;">
<circle cx="104.3600" cy="66.9200" r="0.5000" /> 
</g>
<g style="fill:#FFFFFF; fill-opacity:1.0000; stroke:none;">
<circle cx="104.3600" cy="69.4600" r="0.5000" /> 
</g>
<g style="fill:#FFFFFF; fill-opacity:1.0000; stroke:none;">
<circle cx="104.3600" cy="72.0000" r="0.5000" /> 
</g>
<g style="fill:#FFFFFF; fill-opacity:1.0000; stroke:none;">
<circle cx="132.3000" cy="74.5400" r="0.4000" /> 
</g>
<g style="fill:#FFFFFF; fill-opacity:1.0000; stroke:none;">
<circle cx="132.3000" cy="82.1600" r="0.4000" /> 
</g>
<g style="fill:#FFFFFF; fill-opacity:1.0000; stroke:none;">
<circle cx="86.5800" cy="72.0000" r="0.3750" /> 
</g>
<g style="fill:#FFFFFF; fill-opacity:1.0000; stroke:none;">
<circle cx="94.2000" cy="72.0000" r="0.3750" /> 
</g>
<g style="fill:#FFFFFF; fill-opacity:1.0000; stroke:none;">
<circle cx="86.5800" cy="51.6800" r="0.3750" /> 
</g>
<g style="fill:#FFFFFF; fill-opacity:1.0000; stroke:none;">
<circle cx="94.2000" cy="51.6800" r="0.3750" /> 
</g>
<g style="fill:#FFFFFF; fill-opacity:1.0000; stroke:none;">
<circle cx="86.5800" cy="56.7600" r="0.3750" /> 
</g>
<g style="fill:#FFFFFF; fill-opacity:1.0000; stroke:none;">
<circle cx="94.2000" cy="56.7600" r="0.3750" /> 
</g>
<g style="fill:#FFFFFF; fill-opacity:1.0000; stroke:none;">
<circle cx="137.3800" cy="51.6800" r="0.5000" /> 
</g>
<g style="fill:#FFFFFF; fill-opacity:1.0000; stroke:none;">
<circle cx="137.3800" cy="54.2200" r="0.5000" /> 
</g>
<g style="fill:#FFFFFF; fill-opacity:1.0000; stroke:none;">
<circle cx="137.3800" cy="56.7600" r="0.5000" /> 
</g>
<g style="fill:#FFFFFF; fill-opacity:1.0000; stroke:none;">
<circle cx="137.3800" cy="59.3000" r="0.5000" /> 
</g> 
</svg>
